<?xml version="1.0" encoding="UTF-8"?> <svg xmlns="http://www.w3.org/2000/svg" xmlns:xlink="http://www.w3.org/1999/xlink" version="1.1" id="Layer_1" x="0px" y="0px" viewBox="0 0 750 800.5" style="enable-background:new 0 0 750 800.5;" xml:space="preserve"> <style type="text/css"> .st0{fill:#E3DFD9;} .st1{fill:#0C2032;} .st2{fill:#D4648A;} </style> <path class="st0" d="M715.06,755.5H33.94C20.72,755.5,10,744.78,10,731.56V50.44C10,37.22,20.72,26.5,33.94,26.5h681.12 c13.22,0,23.94,10.72,23.94,23.94v681.12C739,744.78,728.28,755.5,715.06,755.5z"></path> <g> <g> <g> <g> <path class="st1" d="M33.07,64.22v101.36v358.1v101.36c0,7.43,7.83,13.46,17.49,13.46h642.94c9.66,0,17.49-6.03,17.49-13.46 v-446c0-7.43-7.83-13.46-17.49-13.46H466.18c-9.66,0-17.49-6.03-17.49-13.46v-87.9c0-7.43-7.83-13.46-17.49-13.46H50.57 C40.9,50.76,33.07,56.79,33.07,64.22z M615.23,205.18c9.66,0,17.49,6.02,17.49,13.45v360.42c0,7.43-7.83,13.45-17.49,13.45h-120 c-9.66,0-17.49-6.02-17.49-13.45V218.63c0-7.43,7.83-13.45,17.49-13.45H615.23z M420.17,205.18c9.66,0,17.49,6.02,17.49,13.45 v360.42c0,7.43-7.83,13.45-17.49,13.45h-120c-9.66,0-17.49-6.02-17.49-13.45V218.63c0-7.43,7.83-13.45,17.49-13.45H420.17z M225.1,205.18c9.66,0,17.49,6.02,17.49,13.45v360.42c0,7.43-7.83,13.45-17.49,13.45h-120c-9.66,0-17.49-6.02-17.49-13.45 V218.63c0-7.43,7.83-13.45,17.49-13.45H225.1z"></path> </g> <path class="st1" d="M537,196.16v197.93c0,8.77-7.11,15.88-15.88,15.88H410.88c-8.77,0-15.88-7.11-15.88-15.88V196.16H537z"></path> <path class="st1" d="M336,196.16v197.93c0,8.77-7.11,15.88-15.88,15.88H209.88c-8.77,0-15.88-7.11-15.88-15.88V196.16H336z"></path> </g> </g> </g> <path class="st1" d="M1008,519.13H816.74c-12.15,0-22-9.85-22-22V305.87c0-12.15,9.85-22,22-22H1008c12.15,0,22,9.85,22,22v191.26 C1030,509.28,1020.15,519.13,1008,519.13z"></path> <path class="st2" d="M694.41,127.5h-45.83c-8.61,0-15.59-6.98-15.59-15.59V66.09c0-8.61,6.98-15.59,15.59-15.59h45.83 c8.61,0,15.59,6.98,15.59,15.59v45.83C710,120.52,703.02,127.5,694.41,127.5z"></path> <g> <path class="st0" d="M94.66,152.02c-0.53-0.49-0.8-1.07-0.8-1.72V86.31c0-0.72,0.27-1.31,0.8-1.77c0.53-0.46,1.15-0.69,1.86-0.69 h14.03c0.78,0,1.42,0.23,1.91,0.69c0.49,0.46,0.74,1.05,0.74,1.77v51.58h32.2c0.78,0,1.42,0.25,1.91,0.74 c0.5,0.49,0.74,1.1,0.74,1.82v9.84c0,0.66-0.25,1.23-0.74,1.72c-0.5,0.49-1.13,0.74-1.91,0.74H96.51 C95.81,152.75,95.19,152.51,94.66,152.02z"></path> <path class="st0" d="M158.11,152.02c-0.53-0.49-0.8-1.07-0.8-1.72V86.31c0-0.72,0.27-1.31,0.8-1.77c0.53-0.46,1.15-0.69,1.86-0.69 h14.24c0.78,0,1.44,0.23,1.97,0.69c0.53,0.46,0.8,1.05,0.8,1.77v63.99c0,0.72-0.27,1.31-0.8,1.77c-0.53,0.46-1.19,0.69-1.97,0.69 h-14.24C159.26,152.75,158.64,152.51,158.11,152.02z"></path> <path class="st0" d="M202.16,150.98c-4.82-1.84-8.45-4.25-10.89-7.24c-2.44-2.99-3.74-6.25-3.88-9.79c0-0.52,0.23-1,0.69-1.43 c0.46-0.43,1.01-0.64,1.65-0.64h13.39c0.85,0,1.54,0.15,2.07,0.44s1.08,0.74,1.65,1.33c0.92,1.71,2.41,3.12,4.46,4.23 c2.05,1.12,4.78,1.67,8.18,1.67c4.04,0,7.12-0.59,9.25-1.77c2.13-1.18,3.19-2.79,3.19-4.82c0-1.44-0.55-2.62-1.65-3.54 c-1.1-0.92-2.82-1.74-5.15-2.46c-2.34-0.72-5.81-1.54-10.42-2.46c-8.5-1.64-14.86-4.05-19.08-7.24c-4.22-3.18-6.32-7.73-6.32-13.63 c0-4,1.2-7.58,3.61-10.73c2.41-3.15,5.85-5.61,10.31-7.38s9.67-2.66,15.62-2.66c6.16,0,11.51,0.98,16.05,2.95 c4.53,1.97,7.99,4.45,10.36,7.43c2.37,2.99,3.63,5.92,3.77,8.81c0,0.59-0.21,1.08-0.64,1.48c-0.43,0.39-0.96,0.59-1.59,0.59h-14.03 c-0.85,0-1.54-0.13-2.07-0.39c-0.53-0.26-1.01-0.69-1.44-1.28c-0.42-1.51-1.58-2.79-3.45-3.84c-1.88-1.05-4.2-1.58-6.96-1.58 c-3.19,0-5.63,0.53-7.33,1.58c-1.7,1.05-2.55,2.59-2.55,4.63c0,1.38,0.48,2.53,1.43,3.45c0.96,0.92,2.51,1.76,4.68,2.51 c2.16,0.76,5.26,1.53,9.3,2.31c6.59,1.12,11.85,2.51,15.78,4.18s6.82,3.84,8.66,6.5c1.84,2.66,2.76,5.99,2.76,9.99 c0,4.4-1.37,8.22-4.09,11.47c-2.73,3.25-6.52,5.74-11.37,7.48c-4.85,1.74-10.4,2.61-16.63,2.61 C212.75,153.74,206.98,152.82,202.16,150.98z"></path> <path class="st0" d="M255.25,152.11c-0.46-0.43-0.69-0.9-0.69-1.43c0-0.39,0.03-0.69,0.11-0.89l24.98-63.2 c0.21-0.79,0.67-1.44,1.38-1.97c0.71-0.52,1.63-0.79,2.76-0.79h15.73c1.13,0,2.05,0.26,2.76,0.79c0.71,0.53,1.17,1.18,1.38,1.97 l24.87,63.2l0.21,0.89c0,0.53-0.23,1-0.69,1.43c-0.46,0.43-1.01,0.64-1.65,0.64h-13.07c-1.7,0-2.83-0.69-3.4-2.07l-4.15-10.04 h-28.38l-4.04,10.04c-0.57,1.38-1.74,2.07-3.51,2.07h-13.07C256.22,152.75,255.71,152.54,255.25,152.11z M301.54,126.47 l-9.88-25.99l-9.88,25.99H301.54z"></path> <path class="st0" d="M328.37,107.08c-0.39-0.39-0.55-0.95-0.48-1.67l3.19-19.2c0.14-0.92,0.53-1.71,1.17-2.36 c0.64-0.66,1.52-0.98,2.66-0.98h12.44c0.57,0,1.04,0.2,1.43,0.59c0.39,0.39,0.58,0.85,0.58,1.38c0,0.39-0.07,0.75-0.21,1.08 l-7.97,19c-0.43,0.85-0.92,1.53-1.49,2.02c-0.57,0.49-1.38,0.74-2.44,0.74h-7.33C329.28,107.67,328.76,107.47,328.37,107.08z"></path> <path class="st0" d="M368.39,150.98c-4.82-1.84-8.45-4.25-10.89-7.24c-2.44-2.99-3.74-6.25-3.88-9.79c0-0.52,0.23-1,0.69-1.43 c0.46-0.43,1.01-0.64,1.65-0.64h13.39c0.85,0,1.54,0.15,2.07,0.44s1.08,0.74,1.65,1.33c0.92,1.71,2.41,3.12,4.46,4.23 c2.05,1.12,4.78,1.67,8.18,1.67c4.04,0,7.12-0.59,9.25-1.77c2.13-1.18,3.19-2.79,3.19-4.82c0-1.44-0.55-2.62-1.65-3.54 c-1.1-0.92-2.82-1.74-5.15-2.46c-2.34-0.72-5.81-1.54-10.42-2.46c-8.5-1.64-14.86-4.05-19.08-7.24c-4.22-3.18-6.32-7.73-6.32-13.63 c0-4,1.2-7.58,3.61-10.73c2.41-3.15,5.85-5.61,10.31-7.38s9.67-2.66,15.62-2.66c6.16,0,11.51,0.98,16.05,2.95 c4.53,1.97,7.99,4.45,10.36,7.43c2.37,2.99,3.63,5.92,3.77,8.81c0,0.59-0.21,1.08-0.64,1.48c-0.43,0.39-0.96,0.59-1.59,0.59H399 c-0.85,0-1.54-0.13-2.07-0.39c-0.53-0.26-1.01-0.69-1.44-1.28c-0.42-1.51-1.58-2.79-3.45-3.84c-1.88-1.05-4.2-1.58-6.96-1.58 c-3.19,0-5.63,0.53-7.33,1.58c-1.7,1.05-2.55,2.59-2.55,4.63c0,1.38,0.48,2.53,1.43,3.45c0.96,0.92,2.51,1.76,4.68,2.51 c2.16,0.76,5.26,1.53,9.3,2.31c6.59,1.12,11.85,2.51,15.78,4.18s6.82,3.84,8.66,6.5c1.84,2.66,2.76,5.99,2.76,9.99 c0,4.4-1.37,8.22-4.09,11.47c-2.73,3.25-6.52,5.74-11.37,7.48c-4.85,1.74-10.4,2.61-16.63,2.61 C378.98,153.74,373.21,152.82,368.39,150.98z"></path> </g> <g> <path class="st1" d="M37.62,724.2c-0.32-0.34-0.47-0.74-0.47-1.2v-44.4c0-0.5,0.16-0.91,0.47-1.23c0.31-0.32,0.68-0.48,1.1-0.48 h17.62c5.37,0,9.6,1.34,12.68,4.03c3.08,2.69,4.62,6.6,4.62,11.75c0,5.1-1.53,8.94-4.59,11.51c-3.06,2.57-7.3,3.86-12.71,3.86 h-7.49V723c0,0.5-0.16,0.91-0.47,1.23c-0.31,0.32-0.7,0.48-1.16,0.48h-8.5C38.3,724.71,37.94,724.54,37.62,724.2z M56.03,698.62 c1.85,0,3.29-0.51,4.34-1.54s1.57-2.54,1.57-4.54c0-1.87-0.49-3.36-1.48-4.47c-0.99-1.12-2.47-1.67-4.44-1.67h-7.36v12.23H56.03z"></path> <path class="st1" d="M80.17,724.2c-0.32-0.34-0.47-0.74-0.47-1.2v-44.4c0-0.5,0.16-0.91,0.47-1.23c0.31-0.32,0.68-0.48,1.1-0.48 h8.43c0.46,0,0.85,0.16,1.17,0.48c0.31,0.32,0.47,0.73,0.47,1.23V723c0,0.5-0.16,0.91-0.47,1.23c-0.32,0.32-0.7,0.48-1.17,0.48 h-8.43C80.85,724.71,80.48,724.54,80.17,724.2z"></path> <path class="st1" d="M96.66,724.27c-0.27-0.29-0.41-0.62-0.41-0.99c0-0.27,0.02-0.48,0.06-0.61l14.79-43.85 c0.13-0.55,0.4-1,0.82-1.37c0.42-0.36,0.96-0.55,1.64-0.55h9.31c0.67,0,1.22,0.18,1.64,0.55c0.42,0.37,0.69,0.82,0.82,1.37 l14.73,43.85l0.13,0.61c0,0.37-0.14,0.7-0.41,0.99c-0.27,0.3-0.6,0.44-0.98,0.44h-7.74c-1.01,0-1.68-0.48-2.01-1.43l-2.46-6.97 h-16.8l-2.39,6.97c-0.34,0.96-1.03,1.43-2.08,1.43h-7.74C97.23,724.71,96.93,724.56,96.66,724.27z M124.06,706.47l-5.85-18.03 l-5.85,18.03H124.06z"></path> <path class="st1" d="M145.62,724.2c-0.32-0.34-0.47-0.74-0.47-1.2v-44.4c0-0.5,0.16-0.91,0.47-1.23c0.31-0.32,0.68-0.48,1.1-0.48 h6.67c1.05,0,1.76,0.43,2.14,1.3l15.36,26.23v-25.82c0-0.5,0.16-0.91,0.47-1.23c0.32-0.32,0.68-0.48,1.1-0.48h7.55 c0.46,0,0.84,0.16,1.13,0.48c0.29,0.32,0.44,0.73,0.44,1.23v44.33c0,0.5-0.15,0.92-0.44,1.26c-0.29,0.34-0.67,0.51-1.13,0.51h-6.73 c-0.92,0-1.62-0.43-2.08-1.3l-15.36-25.27V723c0,0.46-0.15,0.85-0.44,1.2c-0.29,0.34-0.67,0.51-1.13,0.51h-7.55 C146.3,724.71,145.93,724.54,145.62,724.2z"></path> <path class="st1" d="M194.43,720.68c-3.4-3.14-5.2-7.76-5.41-13.87c-0.04-1.32-0.06-3.28-0.06-5.87c0-2.64,0.02-4.62,0.06-5.94 c0.21-6.01,2.05-10.64,5.51-13.9c3.46-3.25,8.09-4.88,13.88-4.88s10.43,1.63,13.91,4.88c3.48,3.26,5.31,7.89,5.48,13.9 c0.08,2.64,0.12,4.62,0.12,5.94c0,1.28-0.04,3.23-0.12,5.87c-0.21,6.1-2.01,10.72-5.41,13.87c-3.4,3.14-8.06,4.71-13.97,4.71 S197.83,723.82,194.43,720.68z M213.91,713.3c1.36-1.5,2.09-3.8,2.17-6.9c0.08-2.64,0.12-4.51,0.12-5.6c0-1.18-0.04-3.05-0.12-5.6 c-0.08-3.1-0.82-5.4-2.2-6.9s-3.21-2.25-5.48-2.25s-4.08,0.75-5.44,2.25s-2.11,3.8-2.23,6.9c-0.04,1.28-0.06,3.14-0.06,5.6 c0,2.41,0.02,4.28,0.06,5.6c0.12,3.1,0.86,5.4,2.2,6.9s3.17,2.25,5.48,2.25C210.71,715.56,212.54,714.81,213.91,713.3z"></path> <path class="st1" d="M239.83,720.68c-3.34-3.14-5-7.88-5-14.21v-27.87c0-0.5,0.16-0.91,0.47-1.23s0.68-0.48,1.1-0.48h8.12 c0.46,0,0.85,0.16,1.17,0.48c0.31,0.32,0.47,0.73,0.47,1.23v27.8c0,2.96,0.64,5.18,1.92,6.66c1.28,1.48,3.14,2.22,5.57,2.22 c2.39,0,4.24-0.75,5.54-2.25c1.3-1.5,1.95-3.71,1.95-6.62v-27.8c0-0.5,0.16-0.91,0.47-1.23c0.31-0.32,0.68-0.48,1.1-0.48h8.18 c0.46,0,0.84,0.16,1.13,0.48c0.29,0.32,0.44,0.73,0.44,1.23v27.87c0,6.33-1.67,11.06-5,14.21c-3.33,3.14-7.92,4.71-13.75,4.71 C247.8,725.39,243.17,723.82,239.83,720.68z"></path> <path class="st1" d="M281.31,724.2c-0.32-0.34-0.47-0.74-0.47-1.2v-44.4c0-0.5,0.16-0.91,0.47-1.23c0.31-0.32,0.68-0.48,1.1-0.48 h6.67c1.05,0,1.76,0.43,2.14,1.3l15.36,26.23v-25.82c0-0.5,0.16-0.91,0.47-1.23c0.32-0.32,0.68-0.48,1.1-0.48h7.55 c0.46,0,0.84,0.16,1.13,0.48c0.29,0.32,0.44,0.73,0.44,1.23v44.33c0,0.5-0.15,0.92-0.44,1.26c-0.29,0.34-0.67,0.51-1.13,0.51h-6.73 c-0.92,0-1.62-0.43-2.08-1.3l-15.36-25.27V723c0,0.46-0.15,0.85-0.44,1.2c-0.29,0.34-0.67,0.51-1.13,0.51h-7.55 C281.99,724.71,281.62,724.54,281.31,724.2z"></path> <path class="st1" d="M326.56,724.2c-0.32-0.34-0.47-0.74-0.47-1.2v-44.4c0-0.5,0.16-0.91,0.47-1.23c0.31-0.32,0.68-0.48,1.1-0.48 h16.36c6.17,0,10.95,1.59,14.35,4.78c3.4,3.19,5.18,7.81,5.35,13.87c0.04,1.32,0.06,3.07,0.06,5.26s-0.02,3.92-0.06,5.19 c-0.21,6.33-1.94,11.03-5.19,14.1c-3.25,3.07-7.98,4.61-14.19,4.61h-16.68C327.24,724.71,326.87,724.54,326.56,724.2z M344.02,714.88c2.77,0,4.8-0.72,6.1-2.15c1.3-1.43,1.99-3.72,2.08-6.86c0.08-1.32,0.13-3.03,0.13-5.12c0-2.09-0.04-3.78-0.13-5.05 c-0.08-3.05-0.83-5.3-2.23-6.76c-1.41-1.46-3.49-2.19-6.26-2.19h-6.29v28.14H344.02z"></path> <path class="st1" d="M371.62,724.2c-0.32-0.34-0.47-0.74-0.47-1.2v-44.4c0-0.5,0.16-0.91,0.47-1.23c0.31-0.32,0.68-0.48,1.1-0.48 h29.39c0.46,0,0.84,0.16,1.13,0.48c0.29,0.32,0.44,0.73,0.44,1.23v6.42c0,0.46-0.15,0.85-0.44,1.2c-0.29,0.34-0.67,0.51-1.13,0.51 h-20.08v9.22h18.69c0.46,0,0.84,0.17,1.13,0.51c0.29,0.34,0.44,0.76,0.44,1.26v5.94c0,0.46-0.15,0.85-0.44,1.2 c-0.29,0.34-0.67,0.51-1.13,0.51h-18.69v9.49h20.58c0.46,0,0.84,0.16,1.13,0.48c0.29,0.32,0.44,0.73,0.44,1.23V723 c0,0.46-0.15,0.85-0.44,1.2c-0.29,0.34-0.67,0.51-1.13,0.51h-29.9C372.3,724.71,371.94,724.54,371.62,724.2z"></path> <path class="st1" d="M411.84,724.2c-0.32-0.34-0.47-0.74-0.47-1.2v-44.4c0-0.5,0.16-0.91,0.47-1.23c0.31-0.32,0.68-0.48,1.1-0.48 h17.12c5.5,0,9.79,1.36,12.87,4.06c3.08,2.71,4.63,6.55,4.63,11.51c0,3.19-0.69,5.9-2.08,8.13c-1.38,2.23-3.29,3.94-5.73,5.12 l8.62,16.8c0.13,0.27,0.19,0.52,0.19,0.75c0,0.37-0.14,0.7-0.41,0.99c-0.27,0.3-0.58,0.44-0.91,0.44h-8.37 c-1.22,0-2.08-0.61-2.58-1.84l-7.17-15.03h-6.42V723c0,0.5-0.16,0.91-0.47,1.23c-0.31,0.32-0.7,0.48-1.16,0.48h-8.12 C412.52,724.71,412.15,724.54,411.84,724.2z M429.93,698.14c1.93,0,3.4-0.51,4.41-1.54s1.51-2.45,1.51-4.27 c0-1.82-0.49-3.27-1.48-4.34c-0.99-1.07-2.47-1.6-4.44-1.6h-7.24v11.75H429.93z"></path> <path class="st1" d="M463.48,722.66l-12.84-43.71l-0.13-0.61c0-0.36,0.14-0.69,0.41-0.99c0.27-0.3,0.6-0.44,0.98-0.44h7.8 c0.59,0,1.08,0.18,1.48,0.55c0.4,0.37,0.66,0.78,0.79,1.23l8.94,31.56l8.87-31.56c0.13-0.45,0.39-0.86,0.79-1.23 c0.4-0.36,0.89-0.55,1.48-0.55h7.87c0.33,0,0.64,0.15,0.91,0.44c0.27,0.3,0.41,0.63,0.41,0.99l-0.13,0.61l-12.84,43.71 c-0.38,1.37-1.24,2.05-2.58,2.05h-9.63C464.71,724.71,463.85,724.03,463.48,722.66z"></path> <path class="st1" d="M497.56,724.2c-0.32-0.34-0.47-0.74-0.47-1.2v-44.4c0-0.5,0.16-0.91,0.47-1.23c0.31-0.32,0.68-0.48,1.1-0.48 h8.43c0.46,0,0.85,0.16,1.17,0.48c0.31,0.32,0.47,0.73,0.47,1.23V723c0,0.5-0.16,0.91-0.47,1.23c-0.32,0.32-0.7,0.48-1.17,0.48 h-8.43C498.24,724.71,497.87,724.54,497.56,724.2z"></path> <path class="st1" d="M523.64,723.48c-2.85-1.27-5-2.95-6.45-5.02c-1.45-2.07-2.21-4.34-2.3-6.8c0-0.36,0.14-0.69,0.41-0.99 c0.27-0.29,0.6-0.44,0.98-0.44h7.93c0.5,0,0.91,0.1,1.23,0.31c0.31,0.21,0.64,0.51,0.98,0.92c0.54,1.18,1.43,2.16,2.64,2.94 c1.22,0.77,2.83,1.16,4.85,1.16c2.39,0,4.22-0.41,5.48-1.23s1.89-1.93,1.89-3.35c0-1-0.33-1.82-0.98-2.46 c-0.65-0.64-1.67-1.21-3.05-1.71c-1.38-0.5-3.44-1.07-6.17-1.71c-5.04-1.14-8.8-2.81-11.3-5.02c-2.5-2.21-3.75-5.36-3.75-9.46 c0-2.78,0.71-5.26,2.14-7.45c1.43-2.19,3.46-3.89,6.11-5.12c2.64-1.23,5.73-1.84,9.25-1.84c3.65,0,6.82,0.68,9.5,2.05 c2.68,1.37,4.73,3.08,6.14,5.16c1.41,2.07,2.15,4.11,2.23,6.11c0,0.41-0.13,0.75-0.38,1.02c-0.25,0.27-0.57,0.41-0.94,0.41h-8.31 c-0.5,0-0.91-0.09-1.23-0.27c-0.31-0.18-0.6-0.48-0.85-0.89c-0.25-1.05-0.93-1.94-2.05-2.66c-1.11-0.73-2.49-1.09-4.12-1.09 c-1.89,0-3.34,0.37-4.34,1.09c-1.01,0.73-1.51,1.8-1.51,3.21c0,0.96,0.28,1.75,0.85,2.39c0.57,0.64,1.49,1.22,2.77,1.74 c1.28,0.52,3.12,1.06,5.51,1.61c3.9,0.77,7.02,1.74,9.35,2.9c2.33,1.16,4.04,2.66,5.13,4.51c1.09,1.84,1.64,4.16,1.64,6.93 c0,3.05-0.81,5.7-2.42,7.96c-1.62,2.25-3.86,3.98-6.73,5.19c-2.88,1.21-6.16,1.81-9.85,1.81 C529.91,725.39,526.49,724.75,523.64,723.48z"></path> <path class="st1" d="M559.67,724.2c-0.32-0.34-0.47-0.74-0.47-1.2v-44.4c0-0.5,0.16-0.91,0.47-1.23c0.31-0.32,0.68-0.48,1.1-0.48 h6.67c1.05,0,1.76,0.43,2.14,1.3l15.36,26.23v-25.82c0-0.5,0.16-0.91,0.47-1.23c0.32-0.32,0.68-0.48,1.1-0.48h7.55 c0.46,0,0.84,0.16,1.13,0.48c0.29,0.32,0.44,0.73,0.44,1.23v44.33c0,0.5-0.15,0.92-0.44,1.26c-0.29,0.34-0.67,0.51-1.13,0.51h-6.73 c-0.92,0-1.62-0.43-2.08-1.3l-15.36-25.27V723c0,0.46-0.15,0.85-0.44,1.2c-0.29,0.34-0.67,0.51-1.13,0.51h-7.55 C560.35,724.71,559.99,724.54,559.67,724.2z"></path> <path class="st1" d="M604.92,724.2c-0.32-0.34-0.47-0.74-0.47-1.2v-44.4c0-0.5,0.16-0.91,0.47-1.23c0.31-0.32,0.68-0.48,1.1-0.48 h8.43c0.46,0,0.85,0.16,1.17,0.48c0.31,0.32,0.47,0.73,0.47,1.23V723c0,0.5-0.16,0.91-0.47,1.23c-0.32,0.32-0.7,0.48-1.17,0.48 h-8.43C605.6,724.71,605.24,724.54,604.92,724.2z"></path> <path class="st1" d="M625.31,724.2c-0.32-0.34-0.47-0.74-0.47-1.2v-44.4c0-0.5,0.16-0.91,0.47-1.23c0.31-0.32,0.68-0.48,1.1-0.48 h6.67c1.05,0,1.76,0.43,2.14,1.3l15.36,26.23v-25.82c0-0.5,0.16-0.91,0.47-1.23c0.32-0.32,0.68-0.48,1.1-0.48h7.55 c0.46,0,0.84,0.16,1.13,0.48c0.29,0.32,0.44,0.73,0.44,1.23v44.33c0,0.5-0.15,0.92-0.44,1.26c-0.29,0.34-0.67,0.51-1.13,0.51h-6.73 c-0.92,0-1.62-0.43-2.08-1.3l-15.36-25.27V723c0,0.46-0.15,0.85-0.44,1.2c-0.29,0.34-0.67,0.51-1.13,0.51h-7.55 C626,724.71,625.63,724.54,625.31,724.2z"></path> <path class="st1" d="M674.12,720.58c-3.4-3.21-5.2-7.78-5.41-13.69c-0.04-1.32-0.06-3.42-0.06-6.28c0-2.87,0.02-4.96,0.06-6.28 c0.21-5.78,2.05-10.25,5.51-13.39c3.46-3.14,8.15-4.71,14.07-4.71c3.99,0,7.46,0.71,10.42,2.12s5.22,3.21,6.8,5.4 c1.57,2.19,2.4,4.44,2.49,6.76c0,0.41-0.14,0.75-0.41,1.02c-0.27,0.27-0.6,0.41-0.98,0.41h-9.19c-0.42,0-0.75-0.07-1.01-0.21 s-0.46-0.39-0.63-0.75c-0.55-1.32-1.41-2.47-2.58-3.45s-2.81-1.47-4.91-1.47c-4.99,0-7.62,2.87-7.87,8.61 c-0.04,1.28-0.06,3.26-0.06,5.94c0,2.64,0.02,4.62,0.06,5.94c0.25,6.01,2.94,9.02,8.06,9.02c2.47,0,4.46-0.69,5.95-2.08 c1.49-1.39,2.23-3.52,2.23-6.39v-1.3h-5.92c-0.46,0-0.84-0.17-1.13-0.51c-0.29-0.34-0.44-0.76-0.44-1.26v-5.05 c0-0.5,0.15-0.92,0.44-1.26c0.29-0.34,0.67-0.51,1.13-0.51h15.86c0.46,0,0.84,0.17,1.13,0.51c0.29,0.34,0.44,0.76,0.44,1.26v7.79 c0,3.87-0.82,7.21-2.46,10.01s-3.96,4.94-6.95,6.42c-3,1.48-6.49,2.22-10.48,2.22C682.24,725.39,677.52,723.79,674.12,720.58z"></path> </g> <g> <polygon class="st0" points="1100.3,846.75 1051.23,818.41 1031.81,829.63 1080.88,857.96 1075.39,861.13 1114.7,883.82 1145.4,866.1 1106.08,843.41 "></polygon> <polygon class="st0" points="1063.87,867.78 1014.8,839.44 993.32,851.85 1042.39,880.18 1039.26,881.99 1078.59,904.69 1096.46,894.38 1096.45,894.36 1109.27,886.96 1069.96,864.27 "></polygon> <path class="st0" d="M986.44,912.62l-9.18-5.3v14.89c0,4.42,1.05,8.46,3.03,11.89l0.01-0.01c2.01,3.49,4.98,6.44,8.75,8.62h0.03 c3.77,2.18,7.8,3.26,11.82,3.26c4.02,0,8.05-1.09,11.82-3.26h0.03l18.68-10.79l-39.21-22.64L986.44,912.62z"></path> <polygon class="st0" points="1025.39,890 977.25,862.2 977.25,887.68 1003.44,902.8 997.65,906.14 1036.86,928.78 1073.16,907.82 1033.83,885.12 "></polygon> <path class="st0" d="M1136.45,825.88l-49.07-28.33l-19.14,11.05l49.07,28.33l-5.79,3.34l39.31,22.69l29.36-16.95 c0.44-0.25,0.87-0.52,1.3-0.8l-39.26-22.67L1136.45,825.88z"></path> <path class="st0" d="M1188.96,813.64c-2.01-3.49-4.98-6.44-8.75-8.62h-0.04l-52.87-30.53l-22.97,13.26l49.07,28.33l-5.77,3.33 l38.28,22.1c1.18-1.26,2.2-2.63,3.04-4.08v-0.04c1.98-3.43,3.04-7.47,3.04-11.88c0-4.42-1.05-8.46-3.03-11.89L1188.96,813.64z"></path> <path class="st1" d="M1203.67,805.11c-3.46-6-8.53-11.07-14.98-14.79l0.01-0.01l-83.73-48.34h-0.04l-83.71-48.33l0.01-0.01 c-6.42-3.71-13.36-5.56-20.34-5.56v-0.03c-6.95,0-13.88,1.86-20.34,5.59c-6.42,3.71-11.49,8.78-14.97,14.81v0.04 c-3.5,6.06-5.37,12.99-5.37,20.37v96.69v96.69c0,7.38,1.87,14.31,5.37,20.37v0.03c3.46,6,8.54,11.07,14.98,14.79l-0.01,0.01 c6.46,3.73,13.4,5.59,20.34,5.59c6.95,0,13.88-1.87,20.34-5.59l-0.01-0.01l83.71-48.33h0.04l83.73-48.35 c6.39-3.69,11.46-8.77,14.96-14.82l0.01,0.01c3.5-6.06,5.37-13,5.37-20.4c0-7.38-1.87-14.31-5.37-20.37V805.11z M1012.75,942.7 h-0.03c-3.77,2.18-7.8,3.26-11.82,3.26c-4.02,0-8.05-1.09-11.82-3.26h-0.03c-3.77-2.18-6.73-5.13-8.75-8.62l-0.01,0.01 c-1.97-3.43-3.03-7.47-3.03-11.89v-14.89l9.18,5.3l5.79-3.34l39.21,22.64L1012.75,942.7z M1036.86,928.78l-39.21-22.64l5.79-3.34 l-26.19-15.12V862.2l48.14,27.8l8.44-4.88l39.32,22.71L1036.86,928.78z M1096.45,894.36l0.01,0.01l-17.87,10.31l-39.32-22.7 l3.13-1.81l-49.07-28.33l21.48-12.4l49.07,28.33l6.09-3.51l39.31,22.69L1096.45,894.36z M1114.7,883.82l-39.31-22.69l5.49-3.17 l-49.07-28.33l19.42-11.21l49.07,28.33l5.79-3.34l39.31,22.69L1114.7,883.82z M1180.18,846.01l-29.36,16.95l-39.31-22.69l5.79-3.34 l-49.07-28.33l19.14-11.05l49.07,28.33l5.77-3.33l39.26,22.67C1181.06,845.49,1180.62,845.76,1180.18,846.01z M1188.96,837.4v0.04 c-0.84,1.45-1.86,2.82-3.04,4.08l-38.28-22.1l5.77-3.33l-49.07-28.33l22.97-13.26l52.87,30.53h0.04c3.77,2.18,6.73,5.13,8.75,8.62 l0.01-0.01c1.97,3.43,3.03,7.47,3.03,11.89C1192,829.93,1190.94,833.96,1188.96,837.4z"></path> </g> <g> <path class="st1" d="M1245.25,830.18c-0.66-0.61-1-1.33-1-2.15V748.1c0-0.9,0.33-1.64,1-2.21c0.66-0.57,1.44-0.86,2.32-0.86h17.52 c0.97,0,1.77,0.29,2.39,0.86c0.62,0.58,0.93,1.31,0.93,2.21v64.43h40.23c0.97,0,1.77,0.31,2.39,0.92c0.62,0.61,0.93,1.37,0.93,2.27 v12.3c0,0.82-0.31,1.54-0.93,2.15c-0.62,0.61-1.42,0.92-2.39,0.92h-61.07C1246.69,831.1,1245.91,830.8,1245.25,830.18z"></path> <path class="st1" d="M1324.5,830.18c-0.66-0.61-1-1.33-1-2.15V748.1c0-0.9,0.33-1.64,1-2.21c0.66-0.57,1.44-0.86,2.32-0.86h17.79 c0.97,0,1.79,0.29,2.46,0.86c0.66,0.58,1,1.31,1,2.21v79.92c0,0.9-0.33,1.64-1,2.21c-0.66,0.57-1.48,0.86-2.46,0.86h-17.79 C1325.94,831.1,1325.17,830.8,1324.5,830.18z"></path> <path class="st1" d="M1379.53,828.89c-6.02-2.29-10.55-5.31-13.61-9.04c-3.05-3.73-4.67-7.81-4.85-12.23 c0-0.66,0.29-1.25,0.86-1.78c0.57-0.53,1.26-0.8,2.06-0.8h16.73c1.06,0,1.92,0.18,2.59,0.55s1.35,0.92,2.06,1.66 c1.15,2.13,3.01,3.89,5.58,5.29c2.57,1.39,5.97,2.09,10.22,2.09c5.04,0,8.89-0.74,11.55-2.21c2.66-1.48,3.98-3.48,3.98-6.03 c0-1.8-0.69-3.28-2.06-4.43c-1.37-1.15-3.52-2.17-6.44-3.07c-2.92-0.9-7.26-1.92-13.01-3.07c-10.62-2.05-18.56-5.06-23.83-9.04 c-5.27-3.97-7.9-9.65-7.9-17.03c0-5,1.5-9.47,4.51-13.4c3.01-3.93,7.3-7.01,12.88-9.22c5.58-2.21,12.08-3.32,19.52-3.32 c7.7,0,14.38,1.23,20.05,3.69c5.66,2.46,9.98,5.55,12.94,9.28c2.96,3.73,4.53,7.4,4.71,11c0,0.74-0.27,1.35-0.8,1.84 s-1.19,0.74-1.99,0.74h-17.52c-1.06,0-1.92-0.16-2.59-0.49c-0.66-0.33-1.26-0.86-1.79-1.6c-0.53-1.89-1.97-3.48-4.31-4.8 c-2.35-1.31-5.24-1.97-8.7-1.97c-3.98,0-7.04,0.66-9.16,1.97c-2.12,1.31-3.19,3.24-3.19,5.78c0,1.72,0.6,3.16,1.79,4.3 c1.19,1.15,3.14,2.19,5.84,3.14c2.7,0.94,6.57,1.91,11.62,2.89c8.23,1.39,14.8,3.14,19.71,5.23c4.91,2.09,8.52,4.8,10.82,8.12 c2.3,3.32,3.45,7.48,3.45,12.48c0,5.49-1.71,10.27-5.11,14.32c-3.41,4.06-8.14,7.17-14.21,9.35c-6.06,2.17-12.99,3.26-20.78,3.26 C1392.76,832.33,1385.55,831.18,1379.53,828.89z"></path> <path class="st1" d="M1445.84,830.3c-0.58-0.53-0.86-1.13-0.86-1.78c0-0.49,0.04-0.86,0.13-1.11l31.2-78.94 c0.27-0.98,0.84-1.8,1.73-2.46c0.88-0.66,2.04-0.98,3.45-0.98h19.65c1.41,0,2.57,0.33,3.45,0.98c0.88,0.66,1.46,1.48,1.73,2.46 l31.07,78.94l0.27,1.11c0,0.66-0.29,1.25-0.86,1.78c-0.58,0.53-1.26,0.8-2.06,0.8h-16.33c-2.12,0-3.54-0.86-4.25-2.58l-5.18-12.54 h-35.45l-5.04,12.54c-0.71,1.72-2.17,2.58-4.38,2.58h-16.33C1447.06,831.1,1446.42,830.84,1445.84,830.3z M1503.66,798.27 l-12.35-32.46l-12.35,32.46H1503.66z"></path> <path class="st2" d="M1537.18,774.05c-0.49-0.49-0.69-1.19-0.6-2.09l3.98-23.98c0.18-1.15,0.66-2.13,1.46-2.95 c0.8-0.82,1.9-1.23,3.32-1.23h15.53c0.71,0,1.3,0.25,1.79,0.74c0.49,0.49,0.73,1.07,0.73,1.72c0,0.49-0.09,0.94-0.27,1.35 l-9.96,23.73c-0.53,1.07-1.15,1.91-1.86,2.52c-0.71,0.61-1.73,0.92-3.05,0.92h-9.16C1538.31,774.79,1537.67,774.54,1537.18,774.05z "></path> <path class="st1" d="M1587.17,828.89c-6.02-2.29-10.55-5.31-13.61-9.04c-3.05-3.73-4.67-7.81-4.85-12.23 c0-0.66,0.29-1.25,0.86-1.78c0.57-0.53,1.26-0.8,2.06-0.8h16.73c1.06,0,1.92,0.18,2.59,0.55s1.35,0.92,2.06,1.66 c1.15,2.13,3.01,3.89,5.58,5.29c2.57,1.39,5.97,2.09,10.22,2.09c5.04,0,8.89-0.74,11.55-2.21c2.66-1.48,3.98-3.48,3.98-6.03 c0-1.8-0.69-3.28-2.06-4.43c-1.37-1.15-3.52-2.17-6.44-3.07c-2.92-0.9-7.26-1.92-13.01-3.07c-10.62-2.05-18.56-5.06-23.83-9.04 c-5.27-3.97-7.9-9.65-7.9-17.03c0-5,1.5-9.47,4.51-13.4c3.01-3.93,7.3-7.01,12.88-9.22c5.58-2.21,12.08-3.32,19.52-3.32 c7.7,0,14.38,1.23,20.05,3.69c5.66,2.46,9.98,5.55,12.94,9.28c2.96,3.73,4.53,7.4,4.71,11c0,0.74-0.27,1.35-0.8,1.84 s-1.19,0.74-1.99,0.74h-17.52c-1.06,0-1.92-0.16-2.59-0.49c-0.66-0.33-1.26-0.86-1.79-1.6c-0.53-1.89-1.97-3.48-4.31-4.8 c-2.35-1.31-5.24-1.97-8.7-1.97c-3.98,0-7.04,0.66-9.16,1.97c-2.12,1.31-3.19,3.24-3.19,5.78c0,1.72,0.6,3.16,1.79,4.3 c1.19,1.15,3.14,2.19,5.84,3.14c2.7,0.94,6.57,1.91,11.62,2.89c8.23,1.39,14.8,3.14,19.71,5.23c4.91,2.09,8.52,4.8,10.82,8.12 c2.3,3.32,3.45,7.48,3.45,12.48c0,5.49-1.71,10.27-5.11,14.32c-3.41,4.06-8.14,7.17-14.21,9.35c-6.06,2.17-12.99,3.26-20.78,3.26 C1600.4,832.33,1593.18,831.18,1587.17,828.89z"></path> </g> <g> <path class="st1" d="M1246.33,890.53c-0.19-0.21-0.29-0.45-0.29-0.73v-26.92c0-0.3,0.1-0.55,0.29-0.75 c0.19-0.19,0.41-0.29,0.67-0.29h10.69c3.26,0,5.82,0.81,7.69,2.44c1.87,1.63,2.81,4,2.81,7.12c0,3.09-0.93,5.42-2.79,6.98 c-1.86,1.56-4.43,2.34-7.71,2.34h-4.54v9.07c0,0.3-0.1,0.55-0.29,0.75c-0.19,0.19-0.43,0.29-0.71,0.29H1247 C1246.75,890.84,1246.53,890.74,1246.33,890.53z M1257.5,875.02c1.12,0,2-0.31,2.63-0.93c0.64-0.62,0.95-1.54,0.95-2.75 c0-1.13-0.3-2.04-0.9-2.71c-0.6-0.68-1.49-1.01-2.69-1.01h-4.47v7.41H1257.5z"></path> <path class="st1" d="M1272.14,890.53c-0.19-0.21-0.29-0.45-0.29-0.73v-26.92c0-0.3,0.1-0.55,0.29-0.75 c0.19-0.19,0.41-0.29,0.67-0.29h5.11c0.28,0,0.52,0.1,0.71,0.29s0.29,0.44,0.29,0.75v26.92c0,0.3-0.1,0.55-0.29,0.75 c-0.19,0.19-0.43,0.29-0.71,0.29h-5.11C1272.55,890.84,1272.33,890.74,1272.14,890.53z"></path> <path class="st1" d="M1282.14,890.57c-0.17-0.18-0.25-0.38-0.25-0.6c0-0.17,0.01-0.29,0.04-0.37l8.97-26.59 c0.08-0.33,0.24-0.61,0.5-0.83c0.25-0.22,0.59-0.33,0.99-0.33h5.65c0.41,0,0.74,0.11,0.99,0.33c0.25,0.22,0.42,0.5,0.5,0.83 l8.93,26.59l0.08,0.37c0,0.22-0.08,0.42-0.25,0.6c-0.17,0.18-0.36,0.27-0.59,0.27h-4.7c-0.61,0-1.02-0.29-1.22-0.87l-1.49-4.23 h-10.19l-1.45,4.23c-0.2,0.58-0.62,0.87-1.26,0.87h-4.7C1282.49,890.84,1282.3,890.75,1282.14,890.57z M1298.76,879.78l-3.55-10.94 l-3.55,10.94H1298.76z"></path> <path class="st1" d="M1311.83,890.53c-0.19-0.21-0.29-0.45-0.29-0.73v-26.92c0-0.3,0.1-0.55,0.29-0.75 c0.19-0.19,0.41-0.29,0.67-0.29h4.05c0.64,0,1.07,0.26,1.3,0.79l9.31,15.91v-15.66c0-0.3,0.1-0.55,0.29-0.75 c0.19-0.19,0.41-0.29,0.67-0.29h4.58c0.28,0,0.51,0.1,0.69,0.29c0.18,0.19,0.27,0.44,0.27,0.75v26.88c0,0.3-0.09,0.56-0.27,0.77 c-0.18,0.21-0.41,0.31-0.69,0.31h-4.08c-0.56,0-0.98-0.26-1.26-0.79l-9.31-15.33v15.08c0,0.28-0.09,0.52-0.27,0.73 c-0.18,0.21-0.41,0.31-0.69,0.31h-4.58C1312.25,890.84,1312.02,890.74,1311.83,890.53z"></path> <path class="st1" d="M1341.43,888.4c-2.06-1.91-3.16-4.71-3.28-8.41c-0.03-0.8-0.04-1.99-0.04-3.56c0-1.6,0.01-2.8,0.04-3.6 c0.13-3.65,1.24-6.45,3.34-8.43c2.1-1.97,4.91-2.96,8.42-2.96s6.32,0.99,8.44,2.96c2.11,1.98,3.22,4.78,3.32,8.43 c0.05,1.6,0.08,2.8,0.08,3.6c0,0.77-0.03,1.96-0.08,3.56c-0.13,3.7-1.22,6.5-3.28,8.41c-2.06,1.91-4.89,2.86-8.47,2.86 S1343.49,890.3,1341.43,888.4z M1353.24,883.92c0.83-0.91,1.27-2.31,1.32-4.18c0.05-1.6,0.08-2.73,0.08-3.4 c0-0.72-0.03-1.85-0.08-3.4c-0.05-1.88-0.5-3.27-1.34-4.18c-0.84-0.91-1.95-1.37-3.32-1.37s-2.47,0.46-3.3,1.37 c-0.83,0.91-1.28,2.31-1.36,4.18c-0.03,0.77-0.04,1.91-0.04,3.4c0,1.46,0.01,2.6,0.04,3.4c0.08,1.88,0.52,3.27,1.34,4.18 c0.81,0.91,1.92,1.37,3.32,1.37C1351.3,885.29,1352.42,884.84,1353.24,883.92z"></path> <path class="st1" d="M1368.97,888.4c-2.02-1.91-3.03-4.78-3.03-8.62v-16.9c0-0.3,0.1-0.55,0.29-0.75s0.41-0.29,0.67-0.29h4.92 c0.28,0,0.52,0.1,0.71,0.29c0.19,0.19,0.29,0.44,0.29,0.75v16.86c0,1.8,0.39,3.14,1.16,4.04c0.78,0.9,1.9,1.35,3.38,1.35 c1.45,0,2.57-0.46,3.36-1.37c0.79-0.91,1.18-2.25,1.18-4.02v-16.86c0-0.3,0.1-0.55,0.29-0.75c0.19-0.19,0.41-0.29,0.67-0.29h4.96 c0.28,0,0.51,0.1,0.69,0.29c0.18,0.19,0.27,0.44,0.27,0.75v16.9c0,3.84-1.01,6.71-3.03,8.62c-2.02,1.91-4.8,2.86-8.34,2.86 C1373.8,891.26,1370.99,890.3,1368.97,888.4z"></path> <path class="st1" d="M1394.12,890.53c-0.19-0.21-0.29-0.45-0.29-0.73v-26.92c0-0.3,0.1-0.55,0.29-0.75 c0.19-0.19,0.41-0.29,0.67-0.29h4.05c0.64,0,1.07,0.26,1.3,0.79l9.31,15.91v-15.66c0-0.3,0.1-0.55,0.29-0.75 c0.19-0.19,0.41-0.29,0.67-0.29h4.58c0.28,0,0.51,0.1,0.69,0.29c0.18,0.19,0.27,0.44,0.27,0.75v26.88c0,0.3-0.09,0.56-0.27,0.77 c-0.18,0.21-0.41,0.31-0.69,0.31h-4.08c-0.56,0-0.98-0.26-1.26-0.79l-9.31-15.33v15.08c0,0.28-0.09,0.52-0.27,0.73 c-0.18,0.21-0.41,0.31-0.69,0.31h-4.58C1394.54,890.84,1394.31,890.74,1394.12,890.53z"></path> <path class="st1" d="M1421.57,890.53c-0.19-0.21-0.29-0.45-0.29-0.73v-26.92c0-0.3,0.1-0.55,0.29-0.75 c0.19-0.19,0.41-0.29,0.67-0.29h9.92c3.74,0,6.64,0.97,8.7,2.9c2.06,1.93,3.14,4.74,3.24,8.41c0.03,0.8,0.04,1.86,0.04,3.19 s-0.01,2.38-0.04,3.15c-0.13,3.84-1.18,6.69-3.15,8.55c-1.97,1.86-4.84,2.8-8.61,2.8h-10.11 C1421.98,890.84,1421.76,890.74,1421.57,890.53z M1432.16,884.88c1.68,0,2.91-0.44,3.7-1.3s1.21-2.26,1.26-4.16 c0.05-0.8,0.08-1.84,0.08-3.11c0-1.27-0.03-2.29-0.08-3.07c-0.05-1.85-0.5-3.22-1.36-4.1s-2.12-1.33-3.8-1.33h-3.82v17.07H1432.16z "></path> <path class="st1" d="M1448.89,890.53c-0.19-0.21-0.29-0.45-0.29-0.73v-26.92c0-0.3,0.1-0.55,0.29-0.75 c0.19-0.19,0.41-0.29,0.67-0.29h17.82c0.28,0,0.51,0.1,0.69,0.29c0.18,0.19,0.27,0.44,0.27,0.75v3.89c0,0.28-0.09,0.52-0.27,0.73 c-0.18,0.21-0.41,0.31-0.69,0.31h-12.18v5.59h11.34c0.28,0,0.51,0.1,0.69,0.31c0.18,0.21,0.27,0.46,0.27,0.77v3.6 c0,0.28-0.09,0.52-0.27,0.73c-0.18,0.21-0.41,0.31-0.69,0.31h-11.34v5.76h12.48c0.28,0,0.51,0.1,0.69,0.29 c0.18,0.19,0.27,0.44,0.27,0.75v3.89c0,0.28-0.09,0.52-0.27,0.73c-0.18,0.21-0.41,0.31-0.69,0.31h-18.13 C1449.31,890.84,1449.08,890.74,1448.89,890.53z"></path> <path class="st1" d="M1473.28,890.53c-0.19-0.21-0.29-0.45-0.29-0.73v-26.92c0-0.3,0.1-0.55,0.29-0.75 c0.19-0.19,0.41-0.29,0.67-0.29h10.38c3.33,0,5.94,0.82,7.81,2.46c1.87,1.64,2.81,3.97,2.81,6.98c0,1.93-0.42,3.58-1.26,4.93 c-0.84,1.35-2,2.39-3.47,3.11l5.23,10.19c0.08,0.17,0.11,0.32,0.11,0.46c0,0.22-0.08,0.42-0.25,0.6c-0.17,0.18-0.35,0.27-0.55,0.27 h-5.08c-0.74,0-1.26-0.37-1.56-1.12l-4.35-9.11h-3.89v9.2c0,0.3-0.1,0.55-0.29,0.75c-0.19,0.19-0.43,0.29-0.71,0.29h-4.92 C1473.7,890.84,1473.47,890.74,1473.28,890.53z M1484.26,874.73c1.17,0,2.06-0.31,2.67-0.93c0.61-0.62,0.92-1.48,0.92-2.59 s-0.3-1.98-0.9-2.63c-0.6-0.65-1.49-0.97-2.69-0.97h-4.39v7.12H1484.26z"></path> <path class="st1" d="M1504.6,889.6l-7.79-26.51l-0.08-0.37c0-0.22,0.08-0.42,0.25-0.6c0.17-0.18,0.36-0.27,0.59-0.27h4.73 c0.36,0,0.66,0.11,0.9,0.33c0.24,0.22,0.4,0.47,0.48,0.75l5.42,19.14l5.38-19.14c0.08-0.28,0.24-0.52,0.48-0.75 c0.24-0.22,0.54-0.33,0.9-0.33h4.77c0.2,0,0.39,0.09,0.55,0.27c0.17,0.18,0.25,0.38,0.25,0.6l-0.08,0.37l-7.79,26.51 c-0.23,0.83-0.75,1.24-1.57,1.24h-5.84C1505.35,890.84,1504.83,890.43,1504.6,889.6z"></path> <path class="st1" d="M1525.27,890.53c-0.19-0.21-0.29-0.45-0.29-0.73v-26.92c0-0.3,0.1-0.55,0.29-0.75 c0.19-0.19,0.41-0.29,0.67-0.29h5.11c0.28,0,0.52,0.1,0.71,0.29s0.29,0.44,0.29,0.75v26.92c0,0.3-0.1,0.55-0.29,0.75 c-0.19,0.19-0.43,0.29-0.71,0.29h-5.11C1525.68,890.84,1525.46,890.74,1525.27,890.53z"></path> <path class="st1" d="M1541.09,890.1c-1.73-0.77-3.04-1.79-3.91-3.04c-0.88-1.26-1.34-2.63-1.39-4.12c0-0.22,0.08-0.42,0.25-0.6 c0.17-0.18,0.36-0.27,0.59-0.27h4.81c0.31,0,0.55,0.06,0.74,0.19c0.19,0.12,0.39,0.31,0.59,0.56c0.33,0.72,0.87,1.31,1.6,1.78 c0.74,0.47,1.72,0.7,2.94,0.7c1.45,0,2.56-0.25,3.32-0.75c0.76-0.5,1.15-1.17,1.15-2.03c0-0.61-0.2-1.1-0.59-1.49 c-0.39-0.39-1.01-0.73-1.85-1.04c-0.84-0.3-2.09-0.65-3.74-1.04c-3.05-0.69-5.34-1.7-6.85-3.04c-1.51-1.34-2.27-3.25-2.27-5.74 c0-1.68,0.43-3.19,1.3-4.52c0.87-1.33,2.1-2.36,3.7-3.11c1.6-0.75,3.47-1.12,5.61-1.12c2.21,0,4.14,0.41,5.76,1.24 c1.63,0.83,2.87,1.87,3.72,3.13s1.3,2.49,1.36,3.71c0,0.25-0.08,0.46-0.23,0.62c-0.15,0.17-0.34,0.25-0.57,0.25h-5.04 c-0.31,0-0.55-0.05-0.74-0.17c-0.19-0.11-0.36-0.29-0.52-0.54c-0.15-0.64-0.57-1.17-1.24-1.62c-0.67-0.44-1.51-0.66-2.5-0.66 c-1.15,0-2.02,0.22-2.63,0.66c-0.61,0.44-0.92,1.09-0.92,1.95c0,0.58,0.17,1.06,0.52,1.45c0.34,0.39,0.9,0.74,1.68,1.06 c0.78,0.32,1.89,0.64,3.34,0.97c2.37,0.47,4.26,1.06,5.67,1.76c1.41,0.7,2.45,1.62,3.11,2.73c0.66,1.12,0.99,2.52,0.99,4.2 c0,1.85-0.49,3.46-1.47,4.83c-0.98,1.37-2.34,2.42-4.08,3.15s-3.73,1.1-5.97,1.1C1544.89,891.26,1542.82,890.87,1541.09,890.1z"></path> <path class="st1" d="M1562.94,890.53c-0.19-0.21-0.29-0.45-0.29-0.73v-26.92c0-0.3,0.1-0.55,0.29-0.75 c0.19-0.19,0.41-0.29,0.67-0.29h4.05c0.64,0,1.07,0.26,1.3,0.79l9.31,15.91v-15.66c0-0.3,0.1-0.55,0.29-0.75 c0.19-0.19,0.41-0.29,0.67-0.29h4.58c0.28,0,0.51,0.1,0.69,0.29c0.18,0.19,0.27,0.44,0.27,0.75v26.88c0,0.3-0.09,0.56-0.27,0.77 c-0.18,0.21-0.41,0.31-0.69,0.31h-4.08c-0.56,0-0.98-0.26-1.26-0.79l-9.31-15.33v15.08c0,0.28-0.09,0.52-0.27,0.73 c-0.18,0.21-0.41,0.31-0.69,0.31h-4.58C1563.36,890.84,1563.13,890.74,1562.94,890.53z"></path> <path class="st1" d="M1590.38,890.53c-0.19-0.21-0.29-0.45-0.29-0.73v-26.92c0-0.3,0.1-0.55,0.29-0.75 c0.19-0.19,0.41-0.29,0.67-0.29h5.11c0.28,0,0.52,0.1,0.71,0.29s0.29,0.44,0.29,0.75v26.92c0,0.3-0.1,0.55-0.29,0.75 c-0.19,0.19-0.43,0.29-0.71,0.29h-5.11C1590.8,890.84,1590.58,890.74,1590.38,890.53z"></path> <path class="st1" d="M1602.75,890.53c-0.19-0.21-0.29-0.45-0.29-0.73v-26.92c0-0.3,0.1-0.55,0.29-0.75 c0.19-0.19,0.41-0.29,0.67-0.29h4.05c0.64,0,1.07,0.26,1.3,0.79l9.31,15.91v-15.66c0-0.3,0.1-0.55,0.29-0.75 c0.19-0.19,0.41-0.29,0.67-0.29h4.58c0.28,0,0.51,0.1,0.69,0.29c0.18,0.19,0.27,0.44,0.27,0.75v26.88c0,0.3-0.09,0.56-0.27,0.77 c-0.18,0.21-0.41,0.31-0.69,0.31h-4.08c-0.56,0-0.98-0.26-1.26-0.79l-9.31-15.33v15.08c0,0.28-0.09,0.52-0.27,0.73 c-0.18,0.21-0.41,0.31-0.69,0.31h-4.58C1603.16,890.84,1602.94,890.74,1602.75,890.53z"></path> <path class="st1" d="M1632.35,888.34c-2.06-1.95-3.16-4.71-3.28-8.31c-0.03-0.8-0.04-2.07-0.04-3.81c0-1.74,0.01-3.01,0.04-3.81 c0.13-3.51,1.24-6.21,3.34-8.12c2.1-1.91,4.94-2.86,8.53-2.86c2.42,0,4.52,0.43,6.32,1.28c1.79,0.86,3.17,1.95,4.12,3.27 c0.95,1.33,1.46,2.69,1.51,4.1c0,0.25-0.08,0.46-0.25,0.62c-0.17,0.17-0.36,0.25-0.59,0.25h-5.57c-0.25,0-0.46-0.04-0.61-0.12 c-0.15-0.08-0.28-0.23-0.38-0.46c-0.33-0.8-0.85-1.5-1.57-2.09c-0.71-0.59-1.7-0.89-2.98-0.89c-3.03,0-4.62,1.74-4.77,5.22 c-0.03,0.77-0.04,1.97-0.04,3.6c0,1.6,0.01,2.8,0.04,3.6c0.15,3.65,1.78,5.47,4.89,5.47c1.5,0,2.7-0.42,3.61-1.26 c0.9-0.84,1.36-2.13,1.36-3.87v-0.79h-3.59c-0.28,0-0.51-0.1-0.69-0.31c-0.18-0.21-0.27-0.46-0.27-0.77v-3.07 c0-0.3,0.09-0.56,0.27-0.77c0.18-0.21,0.41-0.31,0.69-0.31h9.62c0.28,0,0.51,0.1,0.69,0.31c0.18,0.21,0.27,0.46,0.27,0.77v4.72 c0,2.35-0.5,4.37-1.49,6.07c-0.99,1.7-2.4,3-4.22,3.89c-1.82,0.9-3.94,1.35-6.35,1.35 C1637.27,891.26,1634.41,890.28,1632.35,888.34z"></path> </g> </svg> 